<svg width="16" height="20" viewBox="0 0 16 20" fill="none" xmlns="http://www.w3.org/2000/svg">
<path d="M1.73223 11.7687C0.755921 10.7924 0.755924 9.20948 1.73223 8.23317L6.23317 3.73223C7.20948 2.75592 8.79239 2.75592 9.7687 3.73223L14.2696 8.23317C15.2459 9.20948 15.2459 10.7924 14.2696 11.7687L9.7687 16.2696C8.79239 17.2459 7.20948 17.2459 6.23317 16.2696L1.73223 11.7687ZM6.35355 7.64645C6.15829 7.45118 5.84171 7.45118 5.64645 7.64645C5.45118 7.84171 5.45118 8.15829 5.64645 8.35355L7.29289 10L5.64645 11.6464C5.45118 11.8417 5.45118 12.1583 5.64645 12.3536C5.84171 12.5488 6.15829 12.5488 6.35355 12.3536L8 10.7071L9.64645 12.3536C9.84171 12.5488 10.1583 12.5488 10.3536 12.3536C10.5488 12.1583 10.5488 11.8417 10.3536 11.6464L8.70711 10L10.3536 8.35355C10.5488 8.15829 10.5488 7.84171 10.3536 7.64645C10.1583 7.45118 9.84171 7.45118 9.64645 7.64645L8 9.29289L6.35355 7.64645Z" fill="#B10E1C"/>
</svg>
